<mxfile host="Electron" modified="2023-06-11T09:43:47.179Z" agent="Mozilla/5.0 (Windows NT 10.0; Win64; x64) AppleWebKit/537.36 (KHTML, like Gecko) draw.io/21.2.8 Chrome/112.0.5615.165 Electron/24.2.0 Safari/537.36" etag="LgxTZiR_M0xjLQXz_-x3" version="21.2.8" type="device">
  <diagram name="PÃ¡gina-1" id="25_J81vsoXbhFpEccH_g">
    <mxGraphModel dx="1702" dy="1687" grid="1" gridSize="10" guides="1" tooltips="1" connect="1" arrows="1" fold="1" page="1" pageScale="1" pageWidth="827" pageHeight="1169" math="0" shadow="0">
      <root>
        <mxCell id="0" />
        <mxCell id="1" parent="0" />
        <mxCell id="nkwGCczfAGlpAY-gFfY7-3" style="edgeStyle=orthogonalEdgeStyle;rounded=0;orthogonalLoop=1;jettySize=auto;html=1;entryX=0;entryY=0.25;entryDx=0;entryDy=0;fontStyle=1" edge="1" parent="1" source="nkwGCczfAGlpAY-gFfY7-1" target="nkwGCczfAGlpAY-gFfY7-2">
          <mxGeometry relative="1" as="geometry">
            <Array as="points">
              <mxPoint x="-5" y="270" />
              <mxPoint x="-5" y="260" />
            </Array>
          </mxGeometry>
        </mxCell>
        <mxCell id="nkwGCczfAGlpAY-gFfY7-1" value="Client" style="shape=umlActor;verticalLabelPosition=bottom;verticalAlign=top;html=1;outlineConnect=0;fontStyle=1" vertex="1" parent="1">
          <mxGeometry x="-80" y="250" width="30" height="60" as="geometry" />
        </mxCell>
        <mxCell id="nkwGCczfAGlpAY-gFfY7-5" value="" style="edgeStyle=orthogonalEdgeStyle;rounded=0;orthogonalLoop=1;jettySize=auto;html=1;exitX=1;exitY=0.25;exitDx=0;exitDy=0;fontStyle=1" edge="1" parent="1" source="nkwGCczfAGlpAY-gFfY7-2" target="nkwGCczfAGlpAY-gFfY7-4">
          <mxGeometry relative="1" as="geometry">
            <Array as="points">
              <mxPoint x="180" y="260" />
              <mxPoint x="180" y="260" />
            </Array>
          </mxGeometry>
        </mxCell>
        <mxCell id="nkwGCczfAGlpAY-gFfY7-24" style="edgeStyle=orthogonalEdgeStyle;rounded=0;orthogonalLoop=1;jettySize=auto;html=1;exitX=0;exitY=0.75;exitDx=0;exitDy=0;fontStyle=1" edge="1" parent="1" source="nkwGCczfAGlpAY-gFfY7-2" target="nkwGCczfAGlpAY-gFfY7-1">
          <mxGeometry relative="1" as="geometry">
            <Array as="points">
              <mxPoint x="-5" y="300" />
              <mxPoint x="-5" y="290" />
            </Array>
          </mxGeometry>
        </mxCell>
        <mxCell id="nkwGCczfAGlpAY-gFfY7-2" value="Authent&lt;br style=&quot;font-size: 16px;&quot;&gt;ication" style="aspect=fixed;fontStyle=1;fontSize=16;glass=0;shadow=0;rounded=0;html=1;whiteSpace=wrap;labelBackgroundColor=none;" vertex="1" parent="1">
          <mxGeometry x="40" y="240" width="80" height="80" as="geometry" />
        </mxCell>
        <mxCell id="nkwGCczfAGlpAY-gFfY7-23" style="edgeStyle=orthogonalEdgeStyle;rounded=0;orthogonalLoop=1;jettySize=auto;html=1;exitX=0;exitY=0.75;exitDx=0;exitDy=0;entryX=1;entryY=0.75;entryDx=0;entryDy=0;fontStyle=1" edge="1" parent="1" source="nkwGCczfAGlpAY-gFfY7-4" target="nkwGCczfAGlpAY-gFfY7-2">
          <mxGeometry relative="1" as="geometry" />
        </mxCell>
        <mxCell id="nkwGCczfAGlpAY-gFfY7-50" style="edgeStyle=orthogonalEdgeStyle;rounded=0;orthogonalLoop=1;jettySize=auto;html=1;" edge="1" parent="1" source="nkwGCczfAGlpAY-gFfY7-4" target="nkwGCczfAGlpAY-gFfY7-49">
          <mxGeometry relative="1" as="geometry">
            <Array as="points">
              <mxPoint x="260" y="260" />
              <mxPoint x="260" y="260" />
            </Array>
          </mxGeometry>
        </mxCell>
        <mxCell id="nkwGCczfAGlpAY-gFfY7-4" value="Autho&lt;br style=&quot;font-size: 17px;&quot;&gt;rization" style="whiteSpace=wrap;html=1;aspect=fixed;fontStyle=1;fontSize=17;" vertex="1" parent="1">
          <mxGeometry x="160" y="240" width="80" height="80" as="geometry" />
        </mxCell>
        <mxCell id="nkwGCczfAGlpAY-gFfY7-13" value="" style="edgeStyle=orthogonalEdgeStyle;rounded=0;orthogonalLoop=1;jettySize=auto;html=1;fontStyle=1;entryX=0;entryY=0.25;entryDx=0;entryDy=0;" edge="1" parent="1" source="nkwGCczfAGlpAY-gFfY7-10" target="nkwGCczfAGlpAY-gFfY7-12">
          <mxGeometry relative="1" as="geometry">
            <Array as="points">
              <mxPoint x="490" y="260" />
              <mxPoint x="490" y="260" />
            </Array>
          </mxGeometry>
        </mxCell>
        <mxCell id="nkwGCczfAGlpAY-gFfY7-53" style="edgeStyle=orthogonalEdgeStyle;rounded=0;orthogonalLoop=1;jettySize=auto;html=1;" edge="1" parent="1" source="nkwGCczfAGlpAY-gFfY7-10" target="nkwGCczfAGlpAY-gFfY7-49">
          <mxGeometry relative="1" as="geometry">
            <Array as="points">
              <mxPoint x="380" y="300" />
              <mxPoint x="380" y="300" />
            </Array>
          </mxGeometry>
        </mxCell>
        <mxCell id="nkwGCczfAGlpAY-gFfY7-10" value="Controller" style="whiteSpace=wrap;html=1;aspect=fixed;fontStyle=1;fontSize=15;" vertex="1" parent="1">
          <mxGeometry x="400" y="240" width="80" height="80" as="geometry" />
        </mxCell>
        <mxCell id="nkwGCczfAGlpAY-gFfY7-15" value="" style="edgeStyle=orthogonalEdgeStyle;rounded=0;orthogonalLoop=1;jettySize=auto;html=1;fontStyle=1;entryX=0;entryY=0.25;entryDx=0;entryDy=0;" edge="1" parent="1" source="nkwGCczfAGlpAY-gFfY7-12" target="nkwGCczfAGlpAY-gFfY7-14">
          <mxGeometry relative="1" as="geometry">
            <Array as="points">
              <mxPoint x="610" y="260" />
              <mxPoint x="610" y="260" />
            </Array>
          </mxGeometry>
        </mxCell>
        <mxCell id="nkwGCczfAGlpAY-gFfY7-21" style="edgeStyle=orthogonalEdgeStyle;rounded=0;orthogonalLoop=1;jettySize=auto;html=1;exitX=0;exitY=0.75;exitDx=0;exitDy=0;entryX=1;entryY=0.75;entryDx=0;entryDy=0;fontStyle=1" edge="1" parent="1" source="nkwGCczfAGlpAY-gFfY7-12" target="nkwGCczfAGlpAY-gFfY7-10">
          <mxGeometry relative="1" as="geometry" />
        </mxCell>
        <mxCell id="nkwGCczfAGlpAY-gFfY7-12" value="Services" style="whiteSpace=wrap;html=1;aspect=fixed;fontStyle=1;fontSize=18;" vertex="1" parent="1">
          <mxGeometry x="520" y="240" width="80" height="80" as="geometry" />
        </mxCell>
        <mxCell id="nkwGCczfAGlpAY-gFfY7-17" value="" style="edgeStyle=orthogonalEdgeStyle;rounded=0;orthogonalLoop=1;jettySize=auto;html=1;fontStyle=1;entryX=0;entryY=0.25;entryDx=0;entryDy=0;" edge="1" parent="1" source="nkwGCczfAGlpAY-gFfY7-14" target="nkwGCczfAGlpAY-gFfY7-16">
          <mxGeometry relative="1" as="geometry">
            <Array as="points">
              <mxPoint x="730" y="260" />
              <mxPoint x="730" y="260" />
            </Array>
          </mxGeometry>
        </mxCell>
        <mxCell id="nkwGCczfAGlpAY-gFfY7-20" style="edgeStyle=orthogonalEdgeStyle;rounded=0;orthogonalLoop=1;jettySize=auto;html=1;exitX=0;exitY=0.75;exitDx=0;exitDy=0;entryX=1;entryY=0.75;entryDx=0;entryDy=0;fontStyle=1" edge="1" parent="1" source="nkwGCczfAGlpAY-gFfY7-14" target="nkwGCczfAGlpAY-gFfY7-12">
          <mxGeometry relative="1" as="geometry" />
        </mxCell>
        <mxCell id="nkwGCczfAGlpAY-gFfY7-14" value="Repositories" style="whiteSpace=wrap;html=1;aspect=fixed;fontStyle=1" vertex="1" parent="1">
          <mxGeometry x="640" y="240" width="80" height="80" as="geometry" />
        </mxCell>
        <mxCell id="nkwGCczfAGlpAY-gFfY7-19" style="edgeStyle=orthogonalEdgeStyle;rounded=0;orthogonalLoop=1;jettySize=auto;html=1;entryX=1;entryY=0.75;entryDx=0;entryDy=0;exitX=0;exitY=0.75;exitDx=0;exitDy=0;fontStyle=1" edge="1" parent="1" source="nkwGCczfAGlpAY-gFfY7-16" target="nkwGCczfAGlpAY-gFfY7-14">
          <mxGeometry relative="1" as="geometry">
            <Array as="points" />
          </mxGeometry>
        </mxCell>
        <mxCell id="nkwGCczfAGlpAY-gFfY7-16" value="Databases" style="whiteSpace=wrap;html=1;aspect=fixed;fontStyle=1;fontSize=15;verticalAlign=middle;" vertex="1" parent="1">
          <mxGeometry x="760" y="240" width="80" height="80" as="geometry" />
        </mxCell>
        <mxCell id="nkwGCczfAGlpAY-gFfY7-29" style="edgeStyle=orthogonalEdgeStyle;rounded=0;orthogonalLoop=1;jettySize=auto;html=1;" edge="1" parent="1" source="nkwGCczfAGlpAY-gFfY7-27" target="nkwGCczfAGlpAY-gFfY7-28">
          <mxGeometry relative="1" as="geometry" />
        </mxCell>
        <mxCell id="nkwGCczfAGlpAY-gFfY7-31" style="edgeStyle=orthogonalEdgeStyle;rounded=0;orthogonalLoop=1;jettySize=auto;html=1;" edge="1" parent="1" source="nkwGCczfAGlpAY-gFfY7-27" target="nkwGCczfAGlpAY-gFfY7-30">
          <mxGeometry relative="1" as="geometry" />
        </mxCell>
        <mxCell id="nkwGCczfAGlpAY-gFfY7-33" style="edgeStyle=orthogonalEdgeStyle;rounded=0;orthogonalLoop=1;jettySize=auto;html=1;" edge="1" parent="1" source="nkwGCczfAGlpAY-gFfY7-27" target="nkwGCczfAGlpAY-gFfY7-32">
          <mxGeometry relative="1" as="geometry" />
        </mxCell>
        <mxCell id="nkwGCczfAGlpAY-gFfY7-27" value="BROKER" style="whiteSpace=wrap;html=1;aspect=fixed;fontStyle=1;fontSize=15;" vertex="1" parent="1">
          <mxGeometry x="520" y="-20" width="80" height="80" as="geometry" />
        </mxCell>
        <mxCell id="nkwGCczfAGlpAY-gFfY7-34" style="edgeStyle=orthogonalEdgeStyle;rounded=0;orthogonalLoop=1;jettySize=auto;html=1;exitX=0.5;exitY=1;exitDx=0;exitDy=0;" edge="1" parent="1" source="nkwGCczfAGlpAY-gFfY7-28" target="nkwGCczfAGlpAY-gFfY7-12">
          <mxGeometry relative="1" as="geometry" />
        </mxCell>
        <mxCell id="nkwGCczfAGlpAY-gFfY7-28" value="Device&lt;br style=&quot;font-size: 13px;&quot;&gt;Sensor&lt;br style=&quot;font-size: 13px;&quot;&gt;Data&lt;br style=&quot;font-size: 13px;&quot;&gt;Topic&lt;br style=&quot;font-size: 13px;&quot;&gt;Handler" style="whiteSpace=wrap;html=1;aspect=fixed;fontStyle=1;fontSize=13;" vertex="1" parent="1">
          <mxGeometry x="400" y="100" width="80" height="80" as="geometry" />
        </mxCell>
        <mxCell id="nkwGCczfAGlpAY-gFfY7-35" style="edgeStyle=orthogonalEdgeStyle;rounded=0;orthogonalLoop=1;jettySize=auto;html=1;" edge="1" parent="1" source="nkwGCczfAGlpAY-gFfY7-30" target="nkwGCczfAGlpAY-gFfY7-12">
          <mxGeometry relative="1" as="geometry" />
        </mxCell>
        <mxCell id="nkwGCczfAGlpAY-gFfY7-30" value="Device&lt;br style=&quot;font-size: 13px;&quot;&gt;Wake Up Log&lt;br style=&quot;font-size: 13px;&quot;&gt;Topic&lt;br style=&quot;font-size: 13px;&quot;&gt;Handler" style="whiteSpace=wrap;html=1;aspect=fixed;fontStyle=1;fontSize=13;" vertex="1" parent="1">
          <mxGeometry x="520" y="100" width="80" height="80" as="geometry" />
        </mxCell>
        <mxCell id="nkwGCczfAGlpAY-gFfY7-36" style="edgeStyle=orthogonalEdgeStyle;rounded=0;orthogonalLoop=1;jettySize=auto;html=1;exitX=0.5;exitY=1;exitDx=0;exitDy=0;" edge="1" parent="1" source="nkwGCczfAGlpAY-gFfY7-32" target="nkwGCczfAGlpAY-gFfY7-12">
          <mxGeometry relative="1" as="geometry" />
        </mxCell>
        <mxCell id="nkwGCczfAGlpAY-gFfY7-32" value="Device&lt;br style=&quot;font-size: 13px;&quot;&gt;Sensor&lt;br style=&quot;font-size: 13px;&quot;&gt;Error&lt;br style=&quot;font-size: 13px;&quot;&gt;Topic&lt;br style=&quot;font-size: 13px;&quot;&gt;Handler" style="whiteSpace=wrap;html=1;aspect=fixed;fontStyle=1;fontSize=13;" vertex="1" parent="1">
          <mxGeometry x="640" y="100" width="80" height="80" as="geometry" />
        </mxCell>
        <mxCell id="nkwGCczfAGlpAY-gFfY7-43" value="MQTT msg" style="text;html=1;align=center;verticalAlign=middle;resizable=0;points=[];autosize=1;strokeColor=none;fillColor=none;fontStyle=1" vertex="1" parent="1">
          <mxGeometry x="425" y="-12" width="90" height="30" as="geometry" />
        </mxCell>
        <mxCell id="nkwGCczfAGlpAY-gFfY7-44" value="MQTT msg" style="text;html=1;align=center;verticalAlign=middle;resizable=0;points=[];autosize=1;strokeColor=none;fillColor=none;fontStyle=1" vertex="1" parent="1">
          <mxGeometry x="480" y="60" width="90" height="30" as="geometry" />
        </mxCell>
        <mxCell id="nkwGCczfAGlpAY-gFfY7-45" value="MQTT msg" style="text;html=1;align=center;verticalAlign=middle;resizable=0;points=[];autosize=1;strokeColor=none;fillColor=none;fontStyle=1" vertex="1" parent="1">
          <mxGeometry x="590" y="-12" width="90" height="30" as="geometry" />
        </mxCell>
        <mxCell id="nkwGCczfAGlpAY-gFfY7-47" value="request" style="text;html=1;align=center;verticalAlign=middle;resizable=0;points=[];autosize=1;strokeColor=none;fillColor=none;fontStyle=1" vertex="1" parent="1">
          <mxGeometry x="-35" y="230" width="70" height="30" as="geometry" />
        </mxCell>
        <mxCell id="nkwGCczfAGlpAY-gFfY7-48" value="response" style="text;html=1;align=center;verticalAlign=middle;resizable=0;points=[];autosize=1;strokeColor=none;fillColor=none;fontStyle=1" vertex="1" parent="1">
          <mxGeometry x="-40" y="300" width="80" height="30" as="geometry" />
        </mxCell>
        <mxCell id="nkwGCczfAGlpAY-gFfY7-51" style="edgeStyle=orthogonalEdgeStyle;rounded=0;orthogonalLoop=1;jettySize=auto;html=1;" edge="1" parent="1" source="nkwGCczfAGlpAY-gFfY7-49">
          <mxGeometry relative="1" as="geometry">
            <mxPoint x="240" y="300" as="targetPoint" />
            <Array as="points">
              <mxPoint x="240" y="300" />
            </Array>
          </mxGeometry>
        </mxCell>
        <mxCell id="nkwGCczfAGlpAY-gFfY7-52" style="edgeStyle=orthogonalEdgeStyle;rounded=0;orthogonalLoop=1;jettySize=auto;html=1;" edge="1" parent="1" source="nkwGCczfAGlpAY-gFfY7-49" target="nkwGCczfAGlpAY-gFfY7-10">
          <mxGeometry relative="1" as="geometry">
            <Array as="points">
              <mxPoint x="380" y="260" />
              <mxPoint x="380" y="260" />
            </Array>
          </mxGeometry>
        </mxCell>
        <mxCell id="nkwGCczfAGlpAY-gFfY7-49" value="Other&lt;br style=&quot;font-size: 15px;&quot;&gt;Intercep&lt;br style=&quot;font-size: 15px;&quot;&gt;tors" style="whiteSpace=wrap;html=1;aspect=fixed;fontStyle=1;fontSize=15;" vertex="1" parent="1">
          <mxGeometry x="280" y="240" width="80" height="80" as="geometry" />
        </mxCell>
      </root>
    </mxGraphModel>
  </diagram>
</mxfile>
